<?xml version="1.0" standalone="no"?>
<!DOCTYPE svg PUBLIC "-//W3C//DTD SVG 20010904//EN"
 "http://www.w3.org/TR/2001/REC-SVG-20010904/DTD/svg10.dtd">
<svg version="1.0" xmlns="http://www.w3.org/2000/svg"
 width="734.000000pt" height="734.000000pt" viewBox="0 0 734.000000 734.000000"
 preserveAspectRatio="xMidYMid meet">
<metadata>
Created by potrace 1.14, written by Peter Selinger 2001-2017
</metadata>
<g transform="translate(0.000000,734.000000) scale(0.100000,-0.100000)"
fill="#000000" stroke="none">
<path d="M6540 7208 c-305 -134 -380 -166 -712 -311 -109 -48 -205 -91 -215
-96 -10 -5 -47 -21 -83 -36 -36 -16 -83 -36 -105 -46 -22 -9 -66 -29 -98 -43
-31 -14 -85 -37 -118 -51 -33 -14 -90 -39 -127 -56 -37 -17 -87 -39 -112 -49
-25 -10 -85 -37 -133 -59 -49 -23 -95 -41 -103 -41 -8 0 -14 -4 -14 -8 0 -5
-6 -9 -12 -9 -7 0 -44 -15 -83 -33 -110 -50 -137 -62 -350 -155 -200 -87 -243
-106 -343 -151 -29 -13 -54 -24 -57 -24 -2 0 -34 -14 -72 -31 -37 -17 -81 -37
-98 -44 -16 -7 -56 -25 -88 -39 -32 -14 -60 -26 -62 -26 -3 0 -35 -14 -72 -31
-38 -17 -77 -34 -88 -39 -11 -5 -47 -21 -80 -36 -33 -16 -62 -29 -65 -29 -11
-3 -47 -19 -110 -47 -36 -16 -92 -41 -125 -55 -33 -14 -93 -41 -133 -59 -41
-19 -75 -34 -77 -34 -3 0 -34 -13 -70 -30 -36 -16 -67 -30 -70 -30 -2 0 -32
-13 -67 -29 -126 -58 -179 -81 -183 -81 -2 0 -34 -14 -72 -31 -135 -61 -149
-67 -210 -93 -104 -43 -176 -76 -205 -92 -16 -8 -28 -13 -28 -10 0 3 -15 -3
-32 -14 -18 -11 -41 -20 -50 -20 -10 0 -18 -4 -18 -10 0 -5 -6 -10 -14 -10 -8
0 -47 -15 -88 -34 -40 -18 -105 -48 -145 -65 -39 -17 -93 -41 -120 -53 -26
-12 -50 -22 -53 -23 -6 -2 -19 -8 -145 -63 -94 -41 -290 -127 -537 -235 -80
-35 -158 -71 -172 -81 l-26 -16 0 -879 c0 -824 1 -879 18 -893 9 -8 78 -41
152 -73 74 -32 158 -68 185 -80 28 -13 232 -103 455 -200 223 -98 482 -211
575 -252 94 -41 184 -81 200 -88 17 -7 55 -24 85 -38 30 -14 177 -78 325 -142
149 -65 293 -128 320 -140 28 -13 104 -46 170 -75 66 -28 138 -60 160 -70 22
-10 351 -154 730 -320 380 -166 708 -311 730 -321 49 -22 564 -247 765 -334
80 -35 264 -116 410 -180 304 -134 319 -140 363 -159 17 -8 55 -24 82 -36 28
-12 64 -28 80 -35 17 -8 109 -48 205 -90 96 -43 210 -92 253 -111 l77 -33 0
889 0 890 -32 13 c-18 8 -55 24 -83 37 -27 12 -59 26 -70 30 -11 5 -47 21 -80
36 -33 14 -168 73 -300 130 -132 58 -258 113 -280 124 -22 10 -74 33 -115 51
-41 17 -97 42 -125 54 -27 13 -248 109 -490 215 -242 106 -458 200 -480 210
-171 76 -408 180 -411 180 -2 0 -32 13 -66 29 -35 16 -173 77 -308 135 -135
59 -259 113 -275 121 -17 7 -50 22 -75 33 -25 11 -65 29 -90 40 -25 11 -135
60 -245 108 -110 48 -308 134 -440 191 -132 58 -249 114 -260 124 -33 32 -5
66 85 104 41 18 95 41 120 52 44 20 136 61 295 130 44 20 104 46 133 59 29 13
54 24 56 24 2 0 35 14 73 32 37 17 73 32 78 33 6 2 42 17 80 35 97 45 139 63
225 100 41 18 98 43 127 56 28 13 54 24 57 24 3 0 38 15 78 33 103 48 298 134
328 145 14 6 50 21 80 35 30 14 220 97 422 186 201 88 388 170 415 181 26 12
62 28 78 35 17 8 50 23 75 33 25 11 99 43 165 72 66 28 126 56 133 62 6 6 12
8 12 4 0 -3 17 3 37 14 21 11 41 20 45 20 5 0 72 29 183 80 11 5 119 52 240
105 121 53 248 109 283 126 35 16 65 29 68 29 3 0 20 7 37 15 18 7 66 29 107
47 41 18 83 38 93 44 16 9 17 60 15 895 l-3 886 -295 -129z"/>
</g>
</svg>
