<svg width="300" height="200" viewBox="0 0 300 200" fill="none" xmlns="http://www.w3.org/2000/svg">
<path d="M9.18363 0H290.814C295.888 0 300 2.74111 300 6.12242V200H0V6.12242C0 2.74111 4.11166 0 9.18363 0Z" fill="#979797"/>
<path d="M1.5 198.5V20.5H298.5V198.5H1.5Z" fill="white" stroke="#F0F1F2"/>
<path fill-rule="evenodd" clip-rule="evenodd" d="M44.5944 11.8378C45.7139 11.8378 46.6216 10.9302 46.6216 9.81074C46.6216 8.69124 45.7139 7.78372 44.5944 7.78372C43.475 7.78372 42.5675 8.69124 42.5675 9.81074C42.5675 10.9302 43.475 11.8378 44.5944 11.8378Z" fill="white"/>
<path fill-rule="evenodd" clip-rule="evenodd" d="M31.081 11.8378C32.2006 11.8378 33.1081 10.9302 33.1081 9.81074C33.1081 8.69124 32.2006 7.78372 31.081 7.78372C29.9616 7.78372 29.0541 8.69124 29.0541 9.81074C29.0541 10.9302 29.9616 11.8378 31.081 11.8378Z" fill="white"/>
<path fill-rule="evenodd" clip-rule="evenodd" d="M17.5674 11.8378C18.687 11.8378 19.5945 10.9302 19.5945 9.81074C19.5945 8.69124 18.687 7.78372 17.5674 7.78372C16.4479 7.78372 15.5404 8.69124 15.5404 9.81074C15.5404 10.9302 16.4479 11.8378 17.5674 11.8378Z" fill="white"/>
<path d="M161 64H41V188H161V64Z" fill="#F0F1F2"/>
<path d="M160 30H40V55H160V30Z" fill="#4AC959"/>
<path d="M264 30H184V114H264V30Z" fill="#F0F1F2"/>
<path d="M237.733 40H210V43.5556H237.733V40Z" fill="white"/>
<path d="M264 123H184V186H264V123Z" fill="#F0F1F2"/>
<path d="M237.733 133H210V136.556H237.733V133Z" fill="white"/>
<path d="M78.7333 74H51V77.5556H78.7333V74Z" fill="#4AC959"/>
<path d="M151 90H51V94H151V90Z" fill="white"/>
<path fill-rule="evenodd" clip-rule="evenodd" d="M31.8485 30.0086L18.0647 35.6547C18.0254 35.6708 18 35.7071 18 35.7472V39.2528C18 39.2929 18.0254 39.3292 18.0647 39.3453L31.8485 44.9914C31.9199 45.0207 32 44.9717 32 44.8988V41.4833C32 41.4432 31.9746 41.4069 31.9353 41.3908L22.6627 37.5925C22.5764 37.5572 22.5764 37.4428 22.6627 37.4074L31.9353 33.6092C31.9746 33.5931 32 33.5568 32 33.5167V30.1012C32 30.0283 31.9199 29.9793 31.8485 30.0086Z" fill="black"/>
<path fill-rule="evenodd" clip-rule="evenodd" d="M31.8485 30.0086L18.0647 35.6547C18.0254 35.6708 18 35.7071 18 35.7472V39.2528C18 39.2929 18.0254 39.3292 18.0647 39.3453L31.8485 44.9914C31.9199 45.0207 32 44.9717 32 44.8988V41.4833C32 41.4432 31.9746 41.4069 31.9353 41.3908L22.6627 37.5925C22.5764 37.5572 22.5764 37.4428 22.6627 37.4074L31.9353 33.6092C31.9746 33.5931 32 33.5568 32 33.5167V30.1012C32 30.0283 31.9199 29.9793 31.8485 30.0086Z" fill="#4AC959"/>
</svg>
